<svg width="49" height="42" viewBox="0 0 49 42" fill="none" xmlns="http://www.w3.org/2000/svg">
<g id="&#240;&#159;&#166;&#134; icon &#34;people&#34;">
<path id="Vector" d="M33.6875 0C30.5637 0 27.8688 1.80247 26.215 4.53194C28.9713 7.3129 30.625 11.1238 30.625 15.5013C30.625 16.9948 30.4412 18.3337 30.0737 19.6727C31.2375 20.2392 32.4012 20.6512 33.6875 20.6512C38.7713 20.6512 42.875 16.0163 42.875 10.3514C42.875 4.68643 38.7713 0.0514993 33.6875 0.0514993V0ZM15.3125 5.14993C10.2288 5.14993 6.125 9.78486 6.125 15.4498C6.125 21.1147 10.2288 25.7496 15.3125 25.7496C20.3962 25.7496 24.5 21.1147 24.5 15.4498C24.5 9.78486 20.3962 5.14993 15.3125 5.14993ZM44.4062 21.4237C41.7725 24.0502 38.1587 25.6466 34.055 25.7496C35.7087 27.7066 36.75 30.0756 36.75 32.6505V36.0495H49V27.5006C49 24.8226 47.1012 22.5052 44.4062 21.3722V21.4237ZM4.59375 26.5736C1.89875 27.7066 0 30.0241 0 32.702V41.2509H30.625V32.702C30.625 30.0241 28.7262 27.7066 26.0312 26.5736C23.275 29.3031 19.5387 30.8996 15.3125 30.8996C11.0863 30.8996 7.35 29.2516 4.59375 26.5736Z" fill="white"/>
</g>
</svg>
