<svg width="49" height="42" viewBox="0 0 49 42" fill="none" xmlns="http://www.w3.org/2000/svg">
<g id="&#240;&#159;&#166;&#134; icon &#34;cog&#34;">
<path id="Vector" d="M21.4451 0L18.3903 6.11313C17.7793 6.26724 17.2294 6.5241 16.6796 6.78095L9.40898 4.21241L5.00997 7.91111L8.06484 14.0242C7.75935 14.5379 7.51496 14.9489 7.27057 15.4626L0 18.0312V23.1682L7.27057 25.7368C7.51496 26.2505 7.75935 26.6615 8.06484 27.1752L5.00997 33.2883L9.40898 36.987L16.6796 34.4185C17.2294 34.6239 17.7793 34.8808 18.3903 35.0863L21.4451 41.1994H27.5549L30.6097 35.0863C31.1596 34.8808 31.7706 34.6753 32.3204 34.4185L39.591 36.987L43.99 33.2883L40.9352 27.1752C41.1796 26.7128 41.485 26.1991 41.7294 25.7368L49 23.1682V18.0312L41.7294 15.4626C41.5461 15.0003 41.2407 14.4866 40.9352 14.0242L43.99 7.91111L39.591 4.21241L32.3204 6.78095C31.7706 6.57547 31.1596 6.31861 30.6097 6.11313L27.5549 0L21.4451 0ZM24.5 12.8427C29.5711 12.8427 33.6646 16.2846 33.6646 20.5483C33.6646 24.8121 29.5711 28.254 24.5 28.254C19.4289 28.254 15.3354 24.8121 15.3354 20.5483C15.3354 16.2846 19.4289 12.8427 24.5 12.8427Z" fill="white"/>
</g>
</svg>
